<svg width="1600" height="1000" viewBox="0 0 1600 1000" fill="none" xmlns="http://www.w3.org/2000/svg">
  <defs>
    <linearGradient id="meshA" x1="248" y1="145" x2="1373" y2="820" gradientUnits="userSpaceOnUse">
      <stop stop-color="#00FFF2" stop-opacity="0.24"/>
      <stop offset="0.46" stop-color="#6E8BFF" stop-opacity="0.16"/>
      <stop offset="1" stop-color="#D500F9" stop-opacity="0.22"/>
    </linearGradient>
    <linearGradient id="lineA" x1="287" y1="300" x2="1309" y2="733" gradientUnits="userSpaceOnUse">
      <stop stop-color="#FFFFFF" stop-opacity="0.18"/>
      <stop offset="0.5" stop-color="#7DF9FF" stop-opacity="0.22"/>
      <stop offset="1" stop-color="#FFFFFF" stop-opacity="0.08"/>
    </linearGradient>
    <radialGradient id="glowA" cx="0" cy="0" r="1" gradientUnits="userSpaceOnUse" gradientTransform="translate(1134 264) rotate(90) scale(278 278)">
      <stop stop-color="#00FFF2" stop-opacity="0.26"/>
      <stop offset="1" stop-color="#00FFF2" stop-opacity="0"/>
    </radialGradient>
    <radialGradient id="glowB" cx="0" cy="0" r="1" gradientUnits="userSpaceOnUse" gradientTransform="translate(607 708) rotate(90) scale(246 246)">
      <stop stop-color="#D500F9" stop-opacity="0.18"/>
      <stop offset="1" stop-color="#D500F9" stop-opacity="0"/>
    </radialGradient>
    <filter id="blurLarge" x="302" y="133" width="1047" height="768" filterUnits="userSpaceOnUse" color-interpolation-filters="sRGB">
      <feGaussianBlur stdDeviation="64"/>
    </filter>
    <filter id="blurSoft" x="0" y="0" width="1600" height="1000" filterUnits="userSpaceOnUse" color-interpolation-filters="sRGB">
      <feGaussianBlur stdDeviation="18"/>
    </filter>
  </defs>

  <g filter="url(#blurLarge)" opacity="0.72">
    <path d="M430 305C550 180 767 150 974 210C1145 260 1244 385 1217 509C1194 613 1081 690 940 734C736 797 462 791 349 658C249 540 292 445 430 305Z" fill="url(#meshA)"/>
  </g>

  <circle cx="1134" cy="264" r="278" fill="url(#glowA)"/>
  <circle cx="607" cy="708" r="246" fill="url(#glowB)"/>

  <g opacity="0.75">
    <path d="M363 591C477 466 671 405 876 428C1048 448 1203 541 1298 662" stroke="url(#lineA)" stroke-width="2"/>
    <path d="M416 677C560 557 744 515 941 533C1094 547 1228 619 1331 717" stroke="url(#lineA)" stroke-width="1.4"/>
    <path d="M497 364C630 274 819 252 993 284C1108 304 1219 358 1303 437" stroke="url(#lineA)" stroke-width="1.2" stroke-dasharray="7 15"/>
    <path d="M454 469C584 365 751 325 925 341C1063 354 1190 412 1289 505" stroke="url(#lineA)" stroke-width="1.1" stroke-dasharray="4 11"/>
  </g>

  <g opacity="0.22">
    <circle cx="1185" cy="309" r="128" stroke="#FFFFFF"/>
    <circle cx="1185" cy="309" r="172" stroke="#7DF9FF" stroke-dasharray="3 10"/>
    <circle cx="1185" cy="309" r="226" stroke="#FFFFFF" stroke-opacity="0.55"/>
    <circle cx="552" cy="693" r="98" stroke="#FFFFFF" stroke-opacity="0.75"/>
    <circle cx="552" cy="693" r="142" stroke="#D9E3FF" stroke-dasharray="3 10"/>
  </g>

  <g opacity="0.48">
    <circle cx="1002" cy="395" r="5" fill="#FFFFFF"/>
    <circle cx="1098" cy="441" r="4" fill="#7DF9FF"/>
    <circle cx="1175" cy="482" r="5" fill="#FFFFFF"/>
    <circle cx="847" cy="566" r="4" fill="#FFFFFF"/>
    <circle cx="755" cy="618" r="5" fill="#DAD8FF"/>
    <circle cx="640" cy="642" r="4" fill="#7DF9FF"/>
  </g>

  <g filter="url(#blurSoft)" opacity="0.18">
    <path d="M525 246L1292 246" stroke="#FFFFFF"/>
    <path d="M464 758L1208 758" stroke="#FFFFFF"/>
  </g>
</svg>
